# xmcd
#
# Track frame offsets:
#	150
#	13214
#	24644
#	38269
#	51835
#	63150
#	76242
#	87164
#	99218
#	112320
#	125353
#	137881
#	151614
#	163783
#	175450
#	193819
#	206733
#	220312
#	231850
#	244019
#	255390
#	266817
#
# Disc length: 3715 seconds
#
# Revision: 0
# Processed by: cddbd v1.5.2PL0 Copyright (c) Steve Scherf et al.
# Submitted via: EasyCDDAExtractor 2010.6.0.0
#
DISCID=2e0e8116
DTITLE=Robert Johnson - Cross Road Blues
DYEAR=1900
DGENRE=Blues
TTITLE0=Kindhearted Woman Blues
TTITLE1=Kindhearted Woman Blues
TTITLE2=I Believe I'll Dust My Broom
TTITLE3=Sweet Home Chicago
TTITLE4=Rambling on My Mind
TTITLE5=Rambling on My Mind
TTITLE6=When You Got a Friend
TTITLE7=When You Got a Friend
TTITLE8=Come on in My Kitchen
TTITLE9=Come on in My Kitchen
TTITLE10=Terraplane Blues
TTITLE11=Phonograph Blues
TTITLE12=Phonograph Blues
TTITLE13=32-20 Blues
TTITLE14=They're Red Hot
TTITLE15=Dead Shrimp Blues
TTITLE16=Cross Road Blues  
TTITLE17=Cross Road Blues
TTITLE18=Walking Blues
TTITLE19=Last Fair Deal Gone Down
TTITLE20=This Morning
TTITLE21=Working My Way Back Home
EXTD=
EXTT0=
EXTT1=
EXTT2=
EXTT3=
EXTT4=
EXTT5=
EXTT6=
EXTT7=
EXTT8=
EXTT9=
EXTT10=
EXTT11=
EXTT12=
EXTT13=
EXTT14=
EXTT15=
EXTT16=
EXTT17=
EXTT18=
EXTT19=
EXTT20=
EXTT21=
PLAYORDER=
